<svg version="1.1" id="Layer_1" xmlns="http://www.w3.org/2000/svg" xmlns:xlink="http://www.w3.org/1999/xlink" x="0px" y="0px"
	 width="100%" viewBox="0 0 768 228" enable-background="new 0 0 768 228" xml:space="preserve">
<path fill="#76C683" opacity="1.000000" stroke="none" 
	d="
M445.000000,229.000000 
	C297.118652,229.000000 149.237335,229.000000 1.000000,229.000000 
	C1.000000,195.313278 1.000000,161.625290 1.439898,127.477097 
	C20.865030,124.333488 39.850266,121.650093 58.892643,119.412949 
	C58.949787,122.271545 58.949787,124.683891 58.949787,127.291077 
	C66.979355,127.291077 74.226814,127.291077 81.707527,127.291077 
	C81.707527,124.938011 81.707527,122.882271 81.707527,120.244324 
	C77.778969,120.244324 74.145653,120.428085 70.550224,120.139587 
	C69.372551,120.045105 68.293312,118.723862 67.544296,117.882004 
	C70.623276,116.835808 73.327019,115.871231 76.383896,114.802277 
	C77.716660,114.646820 78.696274,114.595726 79.940384,114.747131 
	C81.755882,114.956856 83.306892,114.964088 84.917984,115.432465 
	C84.978081,119.532120 84.978081,123.170631 84.978081,127.160843 
	C87.783104,127.160843 90.170128,127.160843 92.526924,127.160843 
	C92.961227,121.881371 93.365517,116.966789 93.895355,110.525978 
	C101.159241,117.181122 106.409248,112.987816 112.185600,109.274864 
	C112.185600,115.876450 112.185600,121.328949 112.185600,127.147484 
	C114.922211,127.147484 117.301918,127.147484 120.234360,127.147484 
	C120.234360,121.130203 120.234360,115.491707 120.681946,109.891090 
	C121.427475,109.954918 121.725418,109.980858 122.117249,110.402817 
	C123.117310,120.226357 127.361473,125.882133 134.681412,128.072983 
	C145.789017,131.397461 160.066162,121.802414 155.672028,105.201813 
	C156.947113,104.101585 157.931015,103.181976 159.223206,102.342781 
	C159.720642,102.519798 159.909805,102.616402 160.267303,102.904388 
	C161.588913,102.978081 162.742203,102.860390 164.287033,102.619949 
	C165.485092,103.764610 166.945419,105.010033 166.988907,106.303101 
	C167.220718,113.197456 167.098099,120.103722 167.098099,127.179535 
	C170.119217,127.179535 172.358231,127.179535 175.161957,127.179535 
	C175.161957,118.940269 175.161957,111.033562 175.161957,103.505844 
	C178.535278,102.550972 181.290802,101.770988 184.287994,100.962860 
	C184.529663,100.934715 185.013748,100.883934 185.013748,100.883934 
	C185.013748,100.883934 185.496307,100.947670 185.510193,101.419167 
	C185.535034,109.014633 185.615067,116.139496 185.522781,123.262131 
	C185.486145,126.088860 186.292618,127.497246 189.440903,127.507248 
	C192.571320,127.517181 193.405075,126.185364 193.383514,123.313072 
	C193.322632,115.198570 193.457306,107.082588 193.921753,98.964111 
	C196.243378,98.985558 198.158142,99.010094 199.928894,99.345688 
	C194.658569,105.245674 193.372360,111.696030 196.358521,118.584518 
	C199.096313,124.900139 204.308640,128.419708 211.211899,128.672638 
	C218.102631,128.925079 223.437134,125.791084 226.813950,119.755829 
	C231.304840,111.729424 228.815262,103.515648 220.232239,96.130615 
	C222.282333,95.374657 223.999863,94.662750 225.783493,94.400635 
	C256.390472,89.902740 287.006775,85.468307 317.618683,81.003708 
	C350.863342,76.155128 384.108093,71.307014 417.347931,66.425591 
	C438.576874,63.308029 459.792725,60.101551 481.021942,56.986027 
	C518.869019,51.431728 556.719177,45.898098 594.573120,40.390598 
	C620.411926,36.631218 646.259399,32.930920 671.976318,29.502813 
	C667.334351,33.932674 662.893127,38.148373 658.290283,42.179569 
	C643.689697,54.966885 628.945312,67.591492 614.438599,80.483818 
	C609.680359,84.712563 605.478088,89.566895 600.593506,94.226158 
	C593.372620,93.025810 589.580750,97.421730 586.004150,102.577751 
	C583.503235,99.794487 581.826355,96.641380 579.234192,95.400940 
	C576.575134,94.128456 573.020996,94.726357 568.716614,94.425995 
	C573.127930,99.969566 576.628479,104.368629 580.028503,109.112442 
	C574.889099,113.649284 569.850159,117.841393 564.890076,121.658264 
	C566.138123,114.607475 564.564636,110.960594 559.078430,108.644188 
	C556.819275,107.690315 554.131836,107.728333 551.906433,106.723366 
	C549.768188,105.757729 547.975342,104.026985 546.030762,102.632431 
	C548.363647,101.780998 550.646362,100.536179 553.048767,100.229889 
	C554.427185,100.054146 556.732300,101.002922 557.349121,102.136902 
	C559.287537,105.700089 562.006775,105.060493 564.944092,104.592102 
	C564.975037,96.568413 558.574768,92.001877 549.226196,93.125099 
	C542.743164,93.904022 538.684387,97.607567 538.451599,102.956573 
	C538.238892,107.846695 541.536133,111.469017 547.741211,113.047218 
	C550.473511,113.742157 553.330139,114.050369 555.965271,114.994850 
	C558.284058,115.825966 559.085632,117.666389 556.835327,119.526428 
	C554.401917,121.537781 547.702515,120.860641 546.400269,118.048828 
	C544.579163,114.116646 541.875549,115.127388 539.010803,115.412987 
	C538.674194,121.555923 541.748169,126.023811 547.655090,126.945251 
	C551.351013,127.521790 555.237549,126.876213 558.960571,127.126450 
	C554.070618,132.209137 549.456543,137.167725 544.409424,141.637253 
	C530.002380,154.395386 515.415405,166.950195 500.906555,179.593460 
	C488.774445,190.165573 476.617340,200.709473 464.540405,211.344345 
	C457.952789,217.145355 451.508789,223.109451 445.000000,229.000000 
M236.021759,98.517197 
	C234.589569,97.504921 233.157394,96.492653 231.175201,95.091621 
	C231.175201,106.223083 231.175201,116.570549 231.175201,127.058876 
	C233.842422,127.058876 236.196030,127.058876 239.016388,127.058876 
	C239.016388,122.003807 239.016388,117.430405 239.016388,111.861290 
	C246.426559,117.196777 253.055481,121.969742 260.705933,127.478249 
	C260.705933,117.756432 260.714020,109.183907 260.703339,100.611389 
	C260.695038,93.931175 259.928101,93.415337 252.248840,95.655426 
	C252.248840,100.197235 252.248840,104.988541 252.248840,110.929268 
	C246.299316,106.378349 241.445282,102.665398 236.021759,98.517197 
M522.682434,124.488251 
	C522.690247,116.509720 522.709290,108.531181 522.702393,100.552658 
	C522.696655,93.945572 521.792297,93.352531 514.210632,95.716629 
	C514.210632,100.234657 514.210632,105.028610 514.210632,110.917969 
	C506.656677,105.147209 500.181335,100.200447 493.094971,94.786903 
	C493.094971,106.275337 493.094971,116.540726 493.094971,127.137718 
	C495.694885,127.137718 498.066528,127.137718 501.099670,127.137718 
	C501.099670,122.070305 501.099670,117.400833 501.099670,111.770393 
	C507.599915,116.549599 513.148804,120.734055 518.842712,124.710945 
	C519.773865,125.361267 521.344299,125.096207 522.682434,124.488251 
M288.283356,94.819466 
	C284.504486,94.819466 280.725616,94.819466 277.110870,94.819466 
	C276.717651,95.852333 276.398193,96.305748 276.393219,96.762589 
	C276.322540,103.242081 276.270691,109.722008 276.261230,116.201904 
	C276.243439,128.366440 276.256104,128.366440 288.576996,127.827347 
	C298.307526,127.401581 305.160309,120.735603 305.297394,111.562653 
	C305.436676,102.246078 299.163025,95.722504 288.283356,94.819466 
M331.161560,121.206108 
	C328.263855,120.887215 325.346466,120.687096 322.474976,120.210190 
	C320.344208,119.856316 316.841858,121.733215 316.688568,117.613129 
	C316.530640,113.369194 320.091034,115.039925 322.231415,114.791687 
	C324.324524,114.548920 326.467804,114.738861 328.906158,114.738861 
	C328.906158,112.122337 328.906158,110.061272 328.906158,107.319313 
	C325.510803,107.319313 322.370361,107.541656 319.295410,107.190529 
	C318.309479,107.077950 317.496643,105.449707 316.604614,104.514900 
	C317.533356,103.632660 318.373505,102.138062 319.408203,101.988419 
	C322.019501,101.610771 324.724762,101.717079 327.380371,101.857170 
	C330.179108,102.004791 331.725189,101.327400 331.691833,98.057823 
	C331.660980,95.036026 330.234650,94.440605 327.662292,94.490082 
	C322.502686,94.589310 317.336975,94.622711 312.179443,94.480202 
	C309.347717,94.401962 308.383820,95.535332 308.417542,98.294846 
	C308.521332,106.785072 308.515411,115.278152 308.415039,123.768501 
	C308.382233,126.541954 309.419952,127.682747 312.220367,127.610832 
	C316.879242,127.491188 321.562225,127.324997 326.200195,127.660698 
	C330.692688,127.985870 332.409760,126.357887 331.161560,121.206108 
M490.755676,114.018837 
	C491.446381,106.279579 488.520660,100.260139 481.650085,96.672195 
	C475.589447,93.507202 469.413025,93.974602 463.789337,98.026054 
	C457.719696,102.398811 455.384583,110.039383 457.745392,117.083763 
	C460.082336,124.056931 466.785858,128.857574 474.033142,128.747940 
	C482.083099,128.626175 488.071991,123.590668 490.755676,114.018837 
M382.514526,113.991554 
	C382.661194,112.048607 382.807861,110.105659 383.013641,107.379890 
	C379.740875,107.379890 376.954620,107.273628 374.179596,107.404770 
	C370.011658,107.601746 369.386322,105.658493 370.843628,101.707336 
	C375.435577,101.707336 380.028870,101.707336 384.740723,101.707336 
	C384.740723,99.073174 384.740723,97.026237 384.740723,94.850494 
	C377.087097,94.850494 369.820374,94.850494 362.343353,94.850494 
	C362.343353,105.766335 362.343353,116.340538 362.343353,127.134369 
	C370.012878,127.134369 377.374390,127.134369 384.828003,127.134369 
	C384.828003,124.748909 384.828003,122.818657 384.828003,120.128723 
	C379.827484,120.128723 375.108093,120.128723 370.005676,120.128723 
	C370.209412,117.938110 370.339355,116.540932 370.483856,114.987389 
	C374.509644,114.802109 378.148193,114.634651 382.514526,113.991554 
M414.160583,121.448654 
	C412.453705,119.267632 410.676636,118.643318 407.729858,119.667023 
	C403.624207,121.093323 399.798431,119.733871 397.174805,116.070930 
	C394.704620,112.622261 394.582855,108.925911 396.793396,105.306549 
	C399.154694,101.440308 402.960022,99.689049 407.055969,101.086441 
	C411.416016,102.573944 413.537842,100.774696 415.483704,97.552231 
	C409.065887,91.880867 399.795959,92.100708 393.466156,98.074402 
	C387.197845,103.990067 386.284851,113.419525 391.312653,120.316025 
	C396.323975,127.189919 406.290924,129.534042 413.079987,125.256767 
	C413.951569,124.707642 414.175873,123.131157 414.160583,121.448654 
M343.029205,119.403168 
	C343.029205,121.865753 343.029205,124.328346 343.029205,127.154633 
	C345.831665,127.154633 348.211243,127.154633 351.092133,127.154633 
	C351.092133,118.902702 351.092133,110.993614 351.092133,103.200150 
	C360.688171,101.341972 360.709137,101.318100 358.679535,94.908752 
	C350.823517,94.908752 342.940979,94.908752 334.863647,94.908752 
	C334.863647,97.477364 334.863647,99.697937 334.863647,102.150063 
	C337.611816,102.409264 340.034088,102.637733 343.029205,102.920235 
	C343.029205,108.214851 343.029205,113.321960 343.029205,119.403168 
M437.351562,94.558037 
	C431.946869,94.558037 426.542206,94.558037 420.694763,94.558037 
	C420.835205,97.670181 420.934540,99.871948 421.038513,102.175781 
	C423.886108,102.434402 426.167755,102.641617 429.015350,102.900230 
	C429.015350,110.985603 429.015350,118.889793 429.015350,127.129608 
	C431.978546,127.129608 434.351013,127.129608 437.086700,127.129608 
	C437.086700,121.926689 437.086670,117.118073 437.086700,112.309464 
	C437.086761,103.561966 437.086792,103.561966 445.470032,101.776581 
	C445.470032,99.628883 445.470032,97.411476 445.470032,94.558746 
	C442.874542,94.558746 440.587372,94.558746 437.351562,94.558037 
M452.448547,94.671051 
	C448.826447,94.121994 447.373840,95.501831 447.483124,99.318420 
	C447.711670,107.301941 447.623535,115.297348 447.520966,123.286018 
	C447.483948,126.168678 448.369385,127.497025 451.497650,127.508766 
	C454.710999,127.520836 455.412018,126.032600 455.377869,123.223236 
	C455.278809,115.067970 455.429993,106.908867 455.256561,98.756081 
	C455.227905,97.410805 454.057281,96.089828 452.448547,94.671051 
z"/>
<path fill="#5CBC6B" opacity="1.000000" stroke="none" 
	d="
M672.102966,29.204208 
	C646.259399,32.930920 620.411926,36.631218 594.573120,40.390598 
	C556.719177,45.898098 518.869019,51.431728 481.021942,56.986027 
	C459.792725,60.101551 438.576874,63.308029 417.347931,66.425591 
	C384.108093,71.307014 350.863342,76.155128 317.618683,81.003708 
	C287.006775,85.468307 256.390472,89.902740 225.783493,94.400635 
	C223.999863,94.662750 222.282333,95.374657 219.856110,96.016083 
	C212.275284,93.568932 205.912827,94.568352 200.072922,99.034622 
	C198.158142,99.010094 196.243378,98.985558 193.865662,98.511932 
	C192.693756,91.793449 188.683731,95.485497 185.496307,94.986656 
	C185.496307,97.359650 185.496307,99.153656 185.496307,100.947670 
	C185.496307,100.947670 185.013748,100.883934 185.013748,100.883934 
	C185.013748,100.883934 184.529663,100.934715 184.203674,100.531128 
	C183.759323,98.507530 183.640930,96.887535 183.502502,94.993034 
	C175.193359,94.993034 167.173737,94.993034 158.914917,94.993034 
	C158.914917,97.677673 158.914917,99.970024 158.914917,102.262360 
	C157.931015,103.181976 156.947113,104.101585 155.497162,104.923004 
	C150.174454,96.742607 144.268768,93.593521 136.119904,95.034462 
	C128.551956,96.372681 124.721085,101.822784 121.504204,108.554436 
	C120.489647,104.280418 120.010521,99.851799 119.477943,94.929123 
	C114.635071,98.040665 110.101601,100.761475 105.790939,103.798546 
	C103.394775,105.486748 101.540047,105.435829 99.168701,103.768127 
	C94.776382,100.679131 90.175140,97.887207 84.857895,94.452904 
	C84.857895,102.075310 84.857895,108.523315 84.857895,114.971313 
	C83.306892,114.964088 81.755882,114.956856 79.998444,114.345352 
	C79.792007,111.812103 79.792007,109.883133 79.792007,107.373573 
	C75.328232,107.373573 71.427406,107.373573 67.367943,107.373573 
	C67.367943,105.254074 67.367943,103.726273 67.367943,101.741081 
	C72.301186,101.741081 76.890511,101.741081 81.745163,101.741081 
	C81.745163,99.206390 81.745163,97.130714 81.745163,94.848083 
	C74.173447,94.848083 66.771667,94.848083 58.835499,94.848083 
	C58.835499,103.083405 58.835499,111.025055 58.835499,118.966705 
	C39.850266,121.650093 20.865030,124.333488 1.439898,127.008438 
	C1.000000,85.022171 1.000000,43.044338 1.000000,1.000000 
	C235.020889,1.000000 469.041779,1.000000 703.439941,1.325103 
	C700.490601,4.803977 697.173157,7.967445 693.835449,11.109381 
	C687.874695,16.720547 681.901672,22.318729 675.608765,28.010403 
	C674.223450,28.467051 673.163208,28.835629 672.102966,29.204208 
z"/>
<path fill="#8ACF95" opacity="1.000000" stroke="none" 
	d="
M671.976318,29.502810 
	C673.163208,28.835629 674.223450,28.467051 676.049316,28.034008 
	C687.993958,26.454119 699.180420,24.991489 710.350281,23.411608 
	C729.905579,20.645666 749.450623,17.807755 769.000000,14.999999 
	C769.000000,86.275307 769.000000,157.550613 769.000000,229.000000 
	C661.312500,229.000000 553.624939,229.000000 445.468658,229.000000 
	C451.508789,223.109451 457.952789,217.145355 464.540405,211.344345 
	C476.617340,200.709473 488.774445,190.165573 500.906555,179.593460 
	C515.415405,166.950195 530.002380,154.395386 544.409424,141.637253 
	C549.456543,137.167725 554.070618,132.209137 559.185181,126.903236 
	C561.262329,124.899551 563.036804,123.466522 564.811279,122.033501 
	C569.850159,117.841393 574.889099,113.649284 580.347107,109.356552 
	C581.346985,115.104080 581.927734,120.952225 582.537537,127.092773 
	C584.795471,127.092773 587.148499,127.092773 590.583313,127.092773 
	C586.853882,114.277733 592.576843,105.189507 600.941956,97.117050 
	C601.289734,96.781410 601.720154,96.278435 601.699829,95.874146 
	C601.670166,95.284584 601.266052,94.713867 601.021545,94.135132 
	C605.478088,89.566895 609.680359,84.712563 614.438599,80.483818 
	C628.945312,67.591492 643.689697,54.966885 658.290283,42.179569 
	C662.893127,38.148373 667.334351,33.932674 671.976318,29.502810 
M691.704468,95.815613 
	C691.174988,95.983528 690.183228,96.148094 690.182007,96.319824 
	C690.108154,106.543938 690.115967,116.768639 690.115967,127.162048 
	C692.928223,127.162048 695.155457,127.162048 698.167786,127.162048 
	C698.167786,121.298584 698.167786,115.824570 698.167786,110.350555 
	C698.432495,110.022057 698.697205,109.693558 698.961914,109.365059 
	C704.733032,116.649101 710.560242,114.557251 717.088257,109.003807 
	C717.088257,115.992065 717.088257,121.514626 717.088257,127.183884 
	C720.015991,127.183884 722.252014,127.183884 724.692139,127.183884 
	C724.692139,116.440819 724.692139,106.079674 724.692139,95.170700 
	C723.387756,95.807617 722.509399,96.167137 721.699585,96.643303 
	C716.861084,99.488647 711.963440,104.728386 707.230896,104.578468 
	C702.192261,104.418854 697.314880,99.166245 691.704468,95.815613 
M619.592224,127.621948 
	C621.246094,127.441528 622.930908,127.404068 624.547852,127.053490 
	C629.142334,126.057373 632.587646,123.761345 633.048584,118.610100 
	C633.498718,113.579521 630.916565,110.316833 626.490356,108.542847 
	C624.206299,107.627419 621.536072,107.646843 619.293518,106.665382 
	C617.269531,105.779594 615.590515,104.105881 613.759338,102.779671 
	C616.049438,101.882988 618.282288,100.579681 620.651672,100.246613 
	C622.008972,100.055794 624.268555,101.043747 624.939697,102.191963 
	C626.962463,105.652832 629.618591,105.168221 632.586609,104.440674 
	C632.605103,96.675110 626.463562,92.208290 617.250793,93.091461 
	C610.768799,93.712860 606.528320,97.304855 606.079956,102.554039 
	C605.647339,107.619225 609.004333,111.428169 615.450073,113.080307 
	C618.182007,113.780540 621.038818,114.098824 623.670044,115.055374 
	C625.985901,115.897278 626.805237,117.727882 624.467773,119.553337 
	C621.993408,121.485641 615.360718,120.756660 614.008240,117.996292 
	C612.127075,114.156952 609.438782,115.105789 606.561829,115.477791 
	C606.201660,122.702644 609.911133,126.305847 619.592224,127.621948 
M678.402466,94.459244 
	C673.686340,94.459244 668.970154,94.459244 664.150635,94.459244 
	C664.150635,105.958832 664.150635,116.389877 664.150635,127.214310 
	C671.769653,127.214310 679.132874,127.214310 686.702148,127.214310 
	C686.702148,124.868744 686.702148,122.935120 686.702148,120.229622 
	C683.174438,120.229622 679.897766,120.314766 676.628418,120.197830 
	C674.652710,120.127174 671.552307,120.884705 672.230713,117.436905 
	C672.456726,116.288399 675.151550,115.415405 676.860535,114.840759 
	C678.056824,114.438484 679.499756,114.685295 680.824707,114.767776 
	C683.457886,114.931694 684.810791,114.040070 684.827026,111.117134 
	C684.842896,108.251984 683.631714,107.243584 680.935486,107.344246 
	C678.778931,107.424767 676.545471,107.604156 674.483826,107.134789 
	C673.498169,106.910393 672.399292,105.364662 672.190430,104.258942 
	C672.073303,103.639343 673.578491,102.167427 674.512817,102.005959 
	C676.614990,101.642654 678.816772,101.848938 680.978149,101.837059 
	C687.485168,101.801270 687.782959,101.420364 686.103088,94.460419 
	C683.952332,94.460419 681.655090,94.460419 678.402466,94.459244 
M636.719238,95.287560 
	C635.543701,101.644997 635.582947,101.458878 641.768982,102.763603 
	C643.015137,103.026421 644.632629,105.244934 644.717651,106.644417 
	C645.059692,112.278694 644.997986,117.949448 644.821472,123.598480 
	C644.724609,126.699318 645.981201,127.621597 648.919250,127.633308 
	C651.979797,127.645500 652.989990,126.445961 652.906311,123.469620 
	C652.747314,117.819565 652.671265,112.149162 653.021118,106.515816 
	C653.105652,105.154419 654.800720,103.019798 656.070801,102.754990 
	C661.860657,101.547829 662.258606,101.102882 660.228577,94.830444 
	C652.671692,94.830444 645.054199,94.830444 636.719238,95.287560 
z"/>
<path fill="#75C682" opacity="1.000000" stroke="none" 
	d="
M769.000000,14.525871 
	C749.450623,17.807755 729.905579,20.645666 710.350281,23.411608 
	C699.180420,24.991489 687.993958,26.454119 676.374390,27.945938 
	C681.901672,22.318729 687.874695,16.720547 693.835449,11.109381 
	C697.173157,7.967445 700.490601,4.803977 703.908569,1.325103 
	C725.666748,1.000000 747.333496,1.000000 769.000000,1.000000 
	C769.000000,5.434565 769.000000,9.743155 769.000000,14.525871 
z"/>
<path fill="#FCFEFD" opacity="1.000000" stroke="none" 
	d="
M84.917984,115.432465 
	C84.857895,108.523315 84.857895,102.075310 84.857895,94.452904 
	C90.175140,97.887207 94.776382,100.679131 99.168701,103.768127 
	C101.540047,105.435829 103.394775,105.486748 105.790939,103.798546 
	C110.101601,100.761475 114.635071,98.040665 119.477943,94.929123 
	C120.010521,99.851799 120.489647,104.280418 121.499695,108.514465 
	C122.030609,108.319908 122.044914,108.467163 121.558006,108.202209 
	C120.792183,108.575897 120.513268,109.214546 120.234360,109.853203 
	C120.234360,115.491707 120.234360,121.130203 120.234360,127.147484 
	C117.301918,127.147484 114.922211,127.147484 112.185600,127.147484 
	C112.185600,121.328949 112.185600,115.876450 112.185600,109.274864 
	C106.409248,112.987816 101.159241,117.181122 93.895355,110.525978 
	C93.365517,116.966789 92.961227,121.881371 92.526924,127.160843 
	C90.170128,127.160843 87.783104,127.160843 84.978081,127.160843 
	C84.978081,123.170631 84.978081,119.532120 84.917984,115.432465 
z"/>
<path fill="#FAFDFA" opacity="1.000000" stroke="none" 
	d="
M236.306519,98.734818 
	C241.445282,102.665398 246.299316,106.378349 252.248840,110.929268 
	C252.248840,104.988541 252.248840,100.197235 252.248840,95.655426 
	C259.928101,93.415337 260.695038,93.931175 260.703339,100.611389 
	C260.714020,109.183907 260.705933,117.756432 260.705933,127.478249 
	C253.055481,121.969742 246.426559,117.196777 239.016388,111.861290 
	C239.016388,117.430405 239.016388,122.003807 239.016388,127.058876 
	C236.196030,127.058876 233.842422,127.058876 231.175201,127.058876 
	C231.175201,116.570549 231.175201,106.223083 231.175201,95.091621 
	C233.157394,96.492653 234.589569,97.504921 236.306519,98.734818 
z"/>
<path fill="#FAFDFA" opacity="1.000000" stroke="none" 
	d="
M522.650879,124.871239 
	C521.344299,125.096207 519.773865,125.361267 518.842712,124.710945 
	C513.148804,120.734055 507.599915,116.549599 501.099670,111.770393 
	C501.099670,117.400833 501.099670,122.070305 501.099670,127.137718 
	C498.066528,127.137718 495.694885,127.137718 493.094971,127.137718 
	C493.094971,116.540726 493.094971,106.275337 493.094971,94.786903 
	C500.181335,100.200447 506.656677,105.147209 514.210632,110.917969 
	C514.210632,105.028610 514.210632,100.234657 514.210632,95.716629 
	C521.792297,93.352531 522.696655,93.945572 522.702393,100.552658 
	C522.709290,108.531181 522.690247,116.509720 522.650879,124.871239 
z"/>
<path fill="#FAFDFA" opacity="1.000000" stroke="none" 
	d="
M288.745667,94.825806 
	C299.163025,95.722504 305.436676,102.246078 305.297394,111.562653 
	C305.160309,120.735603 298.307526,127.401581 288.576996,127.827347 
	C276.256104,128.366440 276.243439,128.366440 276.261230,116.201904 
	C276.270691,109.722008 276.322540,103.242081 276.393219,96.762589 
	C276.398193,96.305748 276.717651,95.852333 277.110870,94.819466 
	C280.725616,94.819466 284.504486,94.819466 288.745667,94.825806 
M294.217743,104.148949 
	C291.863831,103.524040 289.532501,102.610817 287.144287,102.423645 
	C286.254974,102.353943 284.451508,103.938583 284.401001,104.843414 
	C284.126984,109.753860 284.270935,114.687630 284.270935,119.496635 
	C291.098785,120.495132 294.566711,119.354713 296.595612,115.529839 
	C298.732819,111.500740 297.909088,107.857101 294.217743,104.148949 
z"/>
<path fill="#F6FBF7" opacity="1.000000" stroke="none" 
	d="
M331.320435,121.584213 
	C332.409760,126.357887 330.692688,127.985870 326.200195,127.660698 
	C321.562225,127.324997 316.879242,127.491188 312.220367,127.610832 
	C309.419952,127.682747 308.382233,126.541954 308.415039,123.768501 
	C308.515411,115.278152 308.521332,106.785072 308.417542,98.294846 
	C308.383820,95.535332 309.347717,94.401962 312.179443,94.480202 
	C317.336975,94.622711 322.502686,94.589310 327.662292,94.490082 
	C330.234650,94.440605 331.660980,95.036026 331.691833,98.057823 
	C331.725189,101.327400 330.179108,102.004791 327.380371,101.857170 
	C324.724762,101.717079 322.019501,101.610771 319.408203,101.988419 
	C318.373505,102.138062 317.533356,103.632660 316.604614,104.514908 
	C317.496643,105.449707 318.309479,107.077950 319.295410,107.190529 
	C322.370361,107.541656 325.510803,107.319313 328.906158,107.319313 
	C328.906158,110.061272 328.906158,112.122337 328.906158,114.738861 
	C326.467804,114.738861 324.324524,114.548920 322.231415,114.791687 
	C320.091034,115.039925 316.530640,113.369194 316.688568,117.613129 
	C316.841858,121.733215 320.344208,119.856316 322.474976,120.210190 
	C325.346466,120.687096 328.263855,120.887215 331.320435,121.584213 
z"/>
<path fill="#FAFDFA" opacity="1.000000" stroke="none" 
	d="
M122.044914,108.467163 
	C122.044914,108.467163 122.030609,108.319908 122.035126,108.359879 
	C124.721085,101.822784 128.551956,96.372681 136.119904,95.034462 
	C144.268768,93.593521 150.174454,96.742607 155.205978,105.103615 
	C160.066162,121.802414 145.789017,131.397461 134.681412,128.072983 
	C127.361473,125.882133 123.117310,120.226357 122.153465,110.018333 
	C122.078842,108.980949 122.061874,108.724052 122.044914,108.467163 
M130.410110,107.557411 
	C128.918503,114.132515 130.552032,118.506866 135.286636,120.616043 
	C139.276138,122.393295 144.217514,121.200890 146.982773,117.793663 
	C150.096588,113.956932 149.776337,109.255638 145.692795,104.237755 
	C139.457687,100.371323 135.229126,101.151978 130.410110,107.557411 
z"/>
<path fill="#FAFDFA" opacity="1.000000" stroke="none" 
	d="
M564.890076,121.658264 
	C563.036804,123.466522 561.262329,124.899551 559.263184,126.555794 
	C555.237549,126.876213 551.351013,127.521790 547.655090,126.945251 
	C541.748169,126.023811 538.674194,121.555923 539.010803,115.412987 
	C541.875549,115.127388 544.579163,114.116646 546.400269,118.048828 
	C547.702515,120.860641 554.401917,121.537781 556.835327,119.526428 
	C559.085632,117.666389 558.284058,115.825966 555.965271,114.994850 
	C553.330139,114.050369 550.473511,113.742157 547.741211,113.047218 
	C541.536133,111.469017 538.238892,107.846695 538.451599,102.956573 
	C538.684387,97.607567 542.743164,93.904022 549.226196,93.125099 
	C558.574768,92.001877 564.975037,96.568413 564.944092,104.592102 
	C562.006775,105.060493 559.287537,105.700089 557.349121,102.136902 
	C556.732300,101.002922 554.427185,100.054146 553.048767,100.229889 
	C550.646362,100.536179 548.363647,101.780998 546.030762,102.632431 
	C547.975342,104.026985 549.768188,105.757729 551.906433,106.723366 
	C554.131836,107.728333 556.819275,107.690315 559.078430,108.644188 
	C564.564636,110.960594 566.138123,114.607475 564.890076,121.658264 
z"/>
<path fill="#FAFDFB" opacity="1.000000" stroke="none" 
	d="
M199.928894,99.345688 
	C205.912827,94.568352 212.275284,93.568932 219.554291,96.269463 
	C228.815262,103.515648 231.304840,111.729424 226.813950,119.755829 
	C223.437134,125.791084 218.102631,128.925079 211.211899,128.672638 
	C204.308640,128.419708 199.096313,124.900139 196.358521,118.584518 
	C193.372360,111.696030 194.658569,105.245674 199.928894,99.345688 
M205.431671,119.089684 
	C209.295792,122.114563 213.396973,122.402924 217.448792,119.694710 
	C220.768677,117.475723 222.233749,114.127197 221.532272,110.163643 
	C220.763321,105.818787 218.112885,102.941338 213.726273,102.108330 
	C209.601395,101.325012 206.063553,102.661095 203.745880,106.237289 
	C200.945847,110.557716 201.445282,114.743500 205.431671,119.089684 
z"/>
<path fill="#FAFDFB" opacity="1.000000" stroke="none" 
	d="
M490.673157,114.422546 
	C488.071991,123.590668 482.083099,128.626175 474.033142,128.747940 
	C466.785858,128.857574 460.082336,124.056931 457.745392,117.083763 
	C455.384583,110.039383 457.719696,102.398811 463.789337,98.026054 
	C469.413025,93.974602 475.589447,93.507202 481.650085,96.672195 
	C488.520660,100.260139 491.446381,106.279579 490.673157,114.422546 
M479.865662,119.459389 
	C483.361023,116.414085 485.148224,112.401405 482.831329,108.369850 
	C481.288940,105.685966 478.141541,103.189606 475.186127,102.229355 
	C471.023987,100.877045 467.340424,103.166191 465.224609,107.064056 
	C463.103149,110.972336 463.607025,114.819084 466.536102,118.192123 
	C469.643158,121.770134 473.789459,122.268631 479.865662,119.459389 
z"/>
<path fill="#F6FBF7" opacity="1.000000" stroke="none" 
	d="
M58.892643,119.412949 
	C58.835499,111.025055 58.835499,103.083405 58.835499,94.848083 
	C66.771667,94.848083 74.173447,94.848083 81.745163,94.848083 
	C81.745163,97.130714 81.745163,99.206390 81.745163,101.741081 
	C76.890511,101.741081 72.301186,101.741081 67.367943,101.741081 
	C67.367943,103.726273 67.367943,105.254074 67.367943,107.373573 
	C71.427406,107.373573 75.328232,107.373573 79.792007,107.373573 
	C79.792007,109.883133 79.792007,111.812103 79.733948,114.142853 
	C78.696274,114.595726 77.716660,114.646820 75.935013,114.740044 
	C73.203247,114.775879 71.178139,114.418564 69.382652,114.906395 
	C68.437660,115.163147 67.893951,116.896843 67.169052,117.963631 
	C68.293312,118.723862 69.372551,120.045105 70.550224,120.139587 
	C74.145653,120.428085 77.778969,120.244324 81.707527,120.244324 
	C81.707527,122.882271 81.707527,124.938011 81.707527,127.291077 
	C74.226814,127.291077 66.979355,127.291077 58.949787,127.291077 
	C58.949787,124.683891 58.949787,122.271545 58.892643,119.412949 
z"/>
<path fill="#F6FBF7" opacity="1.000000" stroke="none" 
	d="
M382.150635,114.229370 
	C378.148193,114.634651 374.509644,114.802109 370.483856,114.987389 
	C370.339355,116.540932 370.209412,117.938110 370.005676,120.128723 
	C375.108093,120.128723 379.827484,120.128723 384.828003,120.128723 
	C384.828003,122.818657 384.828003,124.748909 384.828003,127.134369 
	C377.374390,127.134369 370.012878,127.134369 362.343353,127.134369 
	C362.343353,116.340538 362.343353,105.766335 362.343353,94.850494 
	C369.820374,94.850494 377.087097,94.850494 384.740723,94.850494 
	C384.740723,97.026237 384.740723,99.073174 384.740723,101.707336 
	C380.028870,101.707336 375.435577,101.707336 370.843628,101.707336 
	C369.386322,105.658493 370.011658,107.601746 374.179596,107.404770 
	C376.954620,107.273628 379.740875,107.379890 383.013641,107.379890 
	C382.807861,110.105659 382.661194,112.048607 382.150635,114.229370 
z"/>
<path fill="#FAFDFA" opacity="1.000000" stroke="none" 
	d="
M414.430298,121.739624 
	C414.175873,123.131157 413.951569,124.707642 413.079987,125.256767 
	C406.290924,129.534042 396.323975,127.189919 391.312653,120.316025 
	C386.284851,113.419525 387.197845,103.990067 393.466156,98.074402 
	C399.795959,92.100708 409.065887,91.880867 415.483887,97.552658 
	C413.537842,100.774696 411.416016,102.573944 407.055969,101.086441 
	C402.960022,99.689049 399.154694,101.440308 396.793396,105.306549 
	C394.582855,108.925911 394.704620,112.622261 397.174805,116.070930 
	C399.798431,119.733871 403.624207,121.093323 407.729858,119.667023 
	C410.676636,118.643318 412.453705,119.267632 414.430298,121.739624 
z"/>
<path fill="#FCFEFD" opacity="1.000000" stroke="none" 
	d="
M600.593506,94.226151 
	C601.266052,94.713867 601.670166,95.284584 601.699829,95.874146 
	C601.720154,96.278435 601.289734,96.781410 600.941956,97.117050 
	C592.576843,105.189507 586.853882,114.277733 590.583313,127.092773 
	C587.148499,127.092773 584.795471,127.092773 582.537537,127.092773 
	C581.927734,120.952225 581.346985,115.104080 580.447632,109.011810 
	C576.628479,104.368629 573.127930,99.969566 568.716614,94.425995 
	C573.020996,94.726357 576.575134,94.128456 579.234192,95.400940 
	C581.826355,96.641380 583.503235,99.794487 586.004150,102.577751 
	C589.580750,97.421730 593.372620,93.025810 600.593506,94.226151 
z"/>
<path fill="#FDFEFD" opacity="1.000000" stroke="none" 
	d="
M343.029205,118.916115 
	C343.029205,113.321960 343.029205,108.214851 343.029205,102.920235 
	C340.034088,102.637733 337.611816,102.409264 334.863647,102.150063 
	C334.863647,99.697937 334.863647,97.477364 334.863647,94.908752 
	C342.940979,94.908752 350.823517,94.908752 358.679535,94.908752 
	C360.709137,101.318100 360.688171,101.341972 351.092133,103.200150 
	C351.092133,110.993614 351.092133,118.902702 351.092133,127.154633 
	C348.211243,127.154633 345.831665,127.154633 343.029205,127.154633 
	C343.029205,124.328346 343.029205,121.865753 343.029205,118.916115 
z"/>
<path fill="#FCFEFD" opacity="1.000000" stroke="none" 
	d="
M437.825867,94.558395 
	C440.587372,94.558746 442.874542,94.558746 445.470032,94.558746 
	C445.470032,97.411476 445.470032,99.628883 445.470032,101.776581 
	C437.086792,103.561966 437.086761,103.561966 437.086700,112.309464 
	C437.086670,117.118073 437.086700,121.926689 437.086700,127.129608 
	C434.351013,127.129608 431.978546,127.129608 429.015350,127.129608 
	C429.015350,118.889793 429.015350,110.985603 429.015350,102.900230 
	C426.167755,102.641617 423.886108,102.434402 421.038513,102.175781 
	C420.934540,99.871948 420.835205,97.670181 420.694763,94.558037 
	C426.542206,94.558037 431.946869,94.558037 437.825867,94.558395 
z"/>
<path fill="#FCFEFD" opacity="1.000000" stroke="none" 
	d="
M159.223206,102.342789 
	C158.914917,99.970024 158.914917,97.677673 158.914917,94.993034 
	C167.173737,94.993034 175.193359,94.993034 183.502502,94.993034 
	C183.640930,96.887535 183.759323,98.507530 183.962006,100.559265 
	C181.290802,101.770988 178.535278,102.550972 175.161957,103.505844 
	C175.161957,111.033562 175.161957,118.940269 175.161957,127.179535 
	C172.358231,127.179535 170.119217,127.179535 167.098099,127.179535 
	C167.098099,120.103722 167.220718,113.197456 166.988907,106.303101 
	C166.945419,105.010033 165.485092,103.764610 163.913681,102.530914 
	C162.132172,102.614090 161.115585,102.663544 160.098984,102.712997 
	C159.909805,102.616402 159.720642,102.519798 159.223206,102.342789 
z"/>
<path fill="#FFFFFF" opacity="1.000000" stroke="none" 
	d="
M452.931519,94.714340 
	C454.057281,96.089828 455.227905,97.410805 455.256561,98.756081 
	C455.429993,106.908867 455.278809,115.067970 455.377869,123.223236 
	C455.412018,126.032600 454.710999,127.520836 451.497650,127.508766 
	C448.369385,127.497025 447.483948,126.168678 447.520966,123.286018 
	C447.623535,115.297348 447.711670,107.301941 447.483124,99.318420 
	C447.373840,95.501831 448.826447,94.121994 452.931519,94.714340 
z"/>
<path fill="#FFFFFF" opacity="1.000000" stroke="none" 
	d="
M185.510193,101.419167 
	C185.496307,99.153656 185.496307,97.359650 185.496307,94.986656 
	C188.683731,95.485497 192.693756,91.793449 193.458832,98.515015 
	C193.457306,107.082588 193.322632,115.198570 193.383514,123.313072 
	C193.405075,126.185364 192.571320,127.517181 189.440903,127.507248 
	C186.292618,127.497246 185.486145,126.088860 185.522781,123.262131 
	C185.615067,116.139496 185.535034,109.014633 185.510193,101.419167 
z"/>
<path fill="#5CBC6B" opacity="1.000000" stroke="none" 
	d="
M67.544296,117.882004 
	C67.893951,116.896843 68.437660,115.163147 69.382652,114.906395 
	C71.178139,114.418564 73.203247,114.775879 75.581871,114.844414 
	C73.327019,115.871231 70.623276,116.835808 67.544296,117.882004 
z"/>
<path fill="#5CBC6B" opacity="1.000000" stroke="none" 
	d="
M160.267303,102.904388 
	C161.115585,102.663544 162.132172,102.614090 163.522125,102.653671 
	C162.742203,102.860390 161.588913,102.978081 160.267303,102.904388 
z"/>
<path fill="#5CBC6B" opacity="1.000000" stroke="none" 
	d="
M121.558006,108.202209 
	C122.061874,108.724052 122.078842,108.980949 122.059586,109.622330 
	C121.725418,109.980858 121.427475,109.954918 120.681938,109.891090 
	C120.513268,109.214546 120.792183,108.575897 121.558006,108.202209 
z"/>
<path fill="#FCFEFD" opacity="1.000000" stroke="none" 
	d="
M692.035767,95.976463 
	C697.314880,99.166245 702.192261,104.418854 707.230896,104.578468 
	C711.963440,104.728386 716.861084,99.488647 721.699585,96.643303 
	C722.509399,96.167137 723.387756,95.807617 724.692139,95.170700 
	C724.692139,106.079674 724.692139,116.440819 724.692139,127.183884 
	C722.252014,127.183884 720.015991,127.183884 717.088257,127.183884 
	C717.088257,121.514626 717.088257,115.992065 717.088257,109.003807 
	C710.560242,114.557251 704.733032,116.649101 698.961914,109.365059 
	C698.697205,109.693558 698.432495,110.022057 698.167786,110.350555 
	C698.167786,115.824570 698.167786,121.298584 698.167786,127.162048 
	C695.155457,127.162048 692.928223,127.162048 690.115967,127.162048 
	C690.115967,116.768639 690.108154,106.543938 690.182007,96.319824 
	C690.183228,96.148094 691.174988,95.983528 692.035767,95.976463 
z"/>
<path fill="#FAFDFB" opacity="1.000000" stroke="none" 
	d="
M619.181763,127.611404 
	C609.911133,126.305847 606.201660,122.702644 606.561829,115.477791 
	C609.438782,115.105789 612.127075,114.156952 614.008240,117.996292 
	C615.360718,120.756660 621.993408,121.485641 624.467773,119.553337 
	C626.805237,117.727882 625.985901,115.897278 623.670044,115.055374 
	C621.038818,114.098824 618.182007,113.780540 615.450073,113.080307 
	C609.004333,111.428169 605.647339,107.619225 606.079956,102.554039 
	C606.528320,97.304855 610.768799,93.712860 617.250793,93.091461 
	C626.463562,92.208290 632.605103,96.675110 632.586609,104.440674 
	C629.618591,105.168221 626.962463,105.652832 624.939697,102.191963 
	C624.268555,101.043747 622.008972,100.055794 620.651672,100.246613 
	C618.282288,100.579681 616.049438,101.882988 613.759338,102.779663 
	C615.590515,104.105881 617.269531,105.779594 619.293518,106.665382 
	C621.536072,107.646843 624.206299,107.627419 626.490356,108.542847 
	C630.916565,110.316833 633.498718,113.579521 633.048584,118.610100 
	C632.587646,123.761345 629.142334,126.057373 624.547852,127.053490 
	C622.930908,127.404068 621.246094,127.441528 619.181763,127.611404 
z"/>
<path fill="#F8FCF8" opacity="1.000000" stroke="none" 
	d="
M678.880127,94.459831 
	C681.655090,94.460419 683.952332,94.460419 686.103088,94.460419 
	C687.782959,101.420364 687.485168,101.801270 680.978149,101.837059 
	C678.816772,101.848938 676.614990,101.642654 674.512817,102.005959 
	C673.578491,102.167427 672.073303,103.639343 672.190430,104.258942 
	C672.399292,105.364662 673.498169,106.910393 674.483826,107.134789 
	C676.545471,107.604156 678.778931,107.424767 680.935486,107.344246 
	C683.631714,107.243584 684.842896,108.251984 684.827026,111.117134 
	C684.810791,114.040070 683.457886,114.931694 680.824707,114.767776 
	C679.499756,114.685295 678.056824,114.438484 676.860535,114.840759 
	C675.151550,115.415405 672.456726,116.288399 672.230713,117.436905 
	C671.552307,120.884705 674.652710,120.127174 676.628418,120.197830 
	C679.897766,120.314766 683.174438,120.229622 686.702148,120.229622 
	C686.702148,122.935120 686.702148,124.868744 686.702148,127.214310 
	C679.132874,127.214310 671.769653,127.214310 664.150635,127.214310 
	C664.150635,116.389877 664.150635,105.958832 664.150635,94.459244 
	C668.970154,94.459244 673.686340,94.459244 678.880127,94.459831 
z"/>
<path fill="#FCFEFD" opacity="1.000000" stroke="none" 
	d="
M637.077942,95.059006 
	C645.054199,94.830444 652.671692,94.830444 660.228577,94.830444 
	C662.258606,101.102882 661.860657,101.547829 656.070801,102.754990 
	C654.800720,103.019798 653.105652,105.154419 653.021118,106.515816 
	C652.671265,112.149162 652.747314,117.819565 652.906311,123.469620 
	C652.989990,126.445961 651.979797,127.645500 648.919250,127.633308 
	C645.981201,127.621597 644.724609,126.699318 644.821472,123.598480 
	C644.997986,117.949448 645.059692,112.278694 644.717651,106.644417 
	C644.632629,105.244934 643.015137,103.026421 641.768982,102.763603 
	C635.582947,101.458878 635.543701,101.644997 637.077942,95.059006 
z"/>
<path fill="#7CC988" opacity="1.000000" stroke="none" 
	d="
M294.510895,104.393936 
	C297.909088,107.857101 298.732819,111.500740 296.595612,115.529839 
	C294.566711,119.354713 291.098785,120.495132 284.270935,119.496635 
	C284.270935,114.687630 284.126984,109.753860 284.401001,104.843414 
	C284.451508,103.938583 286.254974,102.353943 287.144287,102.423645 
	C289.532501,102.610817 291.863831,103.524040 294.510895,104.393936 
z"/>
<path fill="#76C683" opacity="1.000000" stroke="none" 
	d="
M146.100037,104.834877 
	C149.776337,109.255638 150.096588,113.956932 146.982773,117.793663 
	C144.217514,121.200890 139.276138,122.393295 135.286636,120.616043 
	C130.552032,118.506866 128.918503,114.132515 131.029144,107.466721 
	C136.465469,106.528976 141.282745,105.681923 146.100037,104.834877 
z"/>
<path fill="#5CBC6B" opacity="1.000000" stroke="none" 
	d="
M145.896423,104.536316 
	C141.282745,105.681923 136.465469,106.528976 131.309296,107.165863 
	C135.229126,101.151978 139.457687,100.371323 145.896423,104.536316 
z"/>
<path fill="#79C785" opacity="1.000000" stroke="none" 
	d="
M205.155182,118.833099 
	C201.445282,114.743500 200.945847,110.557716 203.745880,106.237289 
	C206.063553,102.661095 209.601395,101.325012 213.726273,102.108330 
	C218.112885,102.941338 220.763321,105.818787 221.532272,110.163643 
	C222.233749,114.127197 220.768677,117.475723 217.448792,119.694710 
	C213.396973,122.402924 209.295792,122.114563 205.155182,118.833099 
z"/>
<path fill="#79C785" opacity="1.000000" stroke="none" 
	d="
M479.560181,119.673798 
	C473.789459,122.268631 469.643158,121.770134 466.536102,118.192123 
	C463.607025,114.819084 463.103149,110.972336 465.224609,107.064056 
	C467.340424,103.166191 471.023987,100.877045 475.186127,102.229355 
	C478.141541,103.189606 481.288940,105.685966 482.831329,108.369850 
	C485.148224,112.401405 483.361023,116.414085 479.560181,119.673798 
z"/>
</svg>